{"asset":{"version":"2.0","generator":"VECTARY"},"nodes":[{"translation":[-1.350930732377177e-37,0.011223093436512272,1.7763568394002505e-18],"scale":[0.002,0.0019999999999999996,0.002],"rotation":[-0.7071067811865475,-4.2557441367701404e-36,4.25574413677014e-36,0.7071067811865476],"name":"Sphere - baked","mesh":0}],"materials":[{"pbrMetallicRoughness":{"baseColorFactor":[0.1011451642095999,0.267358060183772,0.1572807278900734,1],"metallicFactor":0.61,"roughnessFactor":0.2},"name":"Harlequin 7","emissiveFactor":[0.14,0.14,0.14],"extensions":{},"alphaMode":"OPAQUE","doubleSided":false}],"meshes":[{"primitives":[{"mode":4,"attributes":{"POSITION":1,"NORMAL":2,"TEXCOORD_0":3},"material":0,"indices":0}]}],"accessors":[{"bufferView":0,"byteOffset":0,"componentType":5125,"count":8517,"type":"SCALAR"},{"bufferView":1,"byteOffset":0,"componentType":5126,"count":6417,"max":[40.774658203125,50.44601821899414,99.03926086425781],"min":[-50,-49.77838897705078,0.24076461791992188],"type":"VEC3"},{"bufferView":2,"byteOffset":0,"componentType":5126,"count":6417,"type":"VEC3"},{"bufferView":3,"byteOffset":0,"componentType":5126,"count":6417,"type":"VEC2"}],"bufferViews":[{"buffer":0,"byteOffset":0,"byteLength":34068,"target":34963},{"buffer":0,"byteOffset":34068,"byteLength":77004,"target":34962},{"buffer":0,"byteOffset":111072,"byteLength":77004,"target":34962},{"buffer":0,"byteOffset":188076,"byteLength":51336,"target":34962}],"scene":0,"scenes":[{"nodes":[0],"name":"Project Name"}],"extensionsUsed":["KHR_texture_transform"],"buffers":[{"byteLength":239412,"uri":"ProjectName.bin"}]}